<svg fill="none" height="16" viewBox="0 0 16 16" width="16" xmlns="http://www.w3.org/2000/svg" xmlns:xlink="http://www.w3.org/1999/xlink"><clipPath id="a"><path d="m0 0h16v16h-16z"/></clipPath><g clip-path="url(#a)"><path d="m15.144 5.439-4.317-.628-1.92701-3.911004c-.09157-.157535-.22289-.288275-.38083-.379151-.15793-.090876-.33696-.138704-.51917-.138704-.18222 0-.36124.047828-.51918.138704-.15793.090876-.28925.221616-.38082.379151l-1.927 3.912004-4.317003.627c-.184864.02651-.35861.10426-.501558.22444-.142947.12019-.249384.278-.3072534.45556-.0578696.17756-.0648596.36778-.0201782.54912.0446813.18133.1392486.34653.2729896.47688l3.123003 3.045-.737 4.3c-.03151.1839-.01094.3729.05938.5458.07032.1728.18759.3225.33855.4321.15095.1097.32958.1749.51568.1884.18609.0134.37224-.0255.53739-.1123l3.863-2.031 3.86101 2.029c.1651.0868.3513.1257.5374.1123.1861-.0135.3647-.0787.5157-.1883.1509-.1097.2682-.2594.3385-.4322.0703-.1729.0909-.3619.0594-.5458l-.737-4.3 3.125-3.043c.1334-.13026.2277-.29522.2723-.47626.0447-.18104.0378-.37095-.0199-.54828-.0576-.17733-.1636-.33501-.3061-.45526-.1425-.12024-.3158-.19824-.5003-.2252z" fill="#546bfb"/></g></svg>