<svg fill="none" height="16" viewBox="0 0 16 16" width="16" xmlns="http://www.w3.org/2000/svg" xmlns:xlink="http://www.w3.org/1999/xlink"><clipPath id="a"><path d="m0 0h16v16h-16z"/></clipPath><g clip-path="url(#a)"><path d="m11 16h2c.6 0 1-.4 1-1v-6.99999h1c.3 0 .6-.1.8-.3.4-.4.3-1-.1-1.4l-7.00001-5.999998c-.4-.2999998-.9-.2999998-1.3 0l-7.000001 5.999998c-.40000012.4-.5 1-.1 1.4.1.2.4.3.7.3h1.000001v6.99999c0 .6.4 1 1 1h2c.6 0 1-.4 1-1v-3h4v3c0 .6.40001 1 1.00001 1z" fill="#546bfb"/></g></svg>