<svg fill="none" height="16" viewBox="0 0 16 16" width="16" xmlns="http://www.w3.org/2000/svg"><path d="m4.50001 4.49999c1.9-1.9 5.1-1.9 6.99999 0 .7.7 1.2 1.7 1.4 2.7l2-.3c-.2-1.5-.9-2.8-1.9-3.8-2.7-2.699996-7.09999-2.699996-9.89999 0l-2.199998-2.199996-.7 6.399996 6.399998-.7z" fill="#546bfb"/><path d="m15.8 8.69998-6.39999.7 2.09999 2.10002c-1.89999 1.9-5.09999 1.9-6.99999 0-.7-.7-1.2-1.70002-1.4-2.70002l-2 .3c.2 1.50002.9 2.80002 1.9 3.80002 1.4 1.4 3.1 2 4.9 2s3.59999-.7 4.89999-2l2.2 2.2z" fill="#d7dcff"/></svg>