<svg fill="none" height="24" viewBox="0 0 24 24" width="24" xmlns="http://www.w3.org/2000/svg" xmlns:xlink="http://www.w3.org/1999/xlink"><clipPath id="a"><path d="m0 0h24v24h-24z"/></clipPath><g clip-path="url(#a)" fill="#333"><path d="m20 10v-2c0-2.12173-.8429-4.15656-2.3431-5.65685-1.5003-1.500295-3.5352-2.34315-5.6569-2.34315-2.12173 0-4.15656.842855-5.65685 2.34315-1.5003 1.50029-2.34315 3.53512-2.34315 5.65685v2c-.02456.61-.17461 1.2083-.44078 1.7577s-.64275 1.038-1.10622 1.4353c-.8328.7096-1.35442 1.7173-1.453 2.807 0 2.5 4.112 4 11 4s11-1.5 11-4c-.0986-1.0897-.6202-2.0974-1.453-2.807-.4635-.3973-.84-.8859-1.1062-1.4353s-.4162-1.1477-.4408-1.7577z"/><path d="m9.145 21.9c.1906.608.5703 1.1392 1.0838 1.5164s1.1341.5806 1.7712.5806c.6372 0 1.2577-.2034 1.7712-.5806s.8932-.9084 1.0838-1.5164c-.894.066-1.844.1-2.855.1s-1.961-.032-2.855-.1z"/></g></svg>