<svg fill="none" height="16" viewBox="0 0 16 16" width="16" xmlns="http://www.w3.org/2000/svg"><g fill="#7d8fff"><path d="m9 0h-2v2h2z"/><path d="m14.294 3.05155-1.4138-1.4148-1.4148 1.4138 1.4138 1.4148z"/><path d="m16 7h-2v2h2z"/><path d="m11.5353 13.0194 1.4148 1.4138 1.4138-1.4148-1.4148-1.4138z"/><path d="m9 14h-2v2h2z"/><path d="m1.56618 12.9485 1.4138 1.4148 1.4148-1.4138-1.4138-1.4148z"/><path d="m2 7h-2v2h2z"/><path d="m4.46467 3.12034-1.4148-1.4138-1.4138 1.4148 1.4148 1.4138z"/></g><path d="m8 4c-2.2 0-4 1.8-4 4s1.8 4 4 4 4-1.8 4-4-1.8-4-4-4z" fill="#546bfb"/></svg>