<svg fill="none" height="16" viewBox="0 0 16 16" width="16" xmlns="http://www.w3.org/2000/svg" xmlns:xlink="http://www.w3.org/1999/xlink"><clipPath id="a"><path d="m0 0h16v16h-16z"/></clipPath><g clip-path="url(#a)"><path d="m6 12h2c.6 0 1-.4 1-1v-7.5l3.2 7.9c.2.5.8.8 1.3.5l1.9-.8c.5-.2.8-.8.5-1.3l-3.8-9.299996c-.2-.50000007-.8-.8-1.3-.50000009l-1.8.80000009c-.1-.4-.5-.80000009-1-.80000009h-2c-.6 0-1 .40000009-1 .99999609v10c0 .6.4 1 1 1z" fill="#7d8fff"/><path d="m1 12h2c.6 0 1-.4 1-1v-10c0-.6-.4-1-1-1h-2c-.6 0-1 .4-1 1v10c0 .6.4 1 1 1z" fill="#546bfb"/><path d="m16 14h-16v2h16z" fill="#d7dcff"/></g></svg>